<?xml version="1.0" encoding="UTF-8"?>
<svg id="Warstwa_1" data-name="Warstwa 1" xmlns="http://www.w3.org/2000/svg" xmlns:xlink="http://www.w3.org/1999/xlink" viewBox="0 0 1242 428.25">
  <defs>
    <style>
      .cls-1 {
        fill: #1b1d1e;
      }

      .cls-2 {
        fill: #fefefe;
      }

      .cls-3 {
        fill: #fff;
        filter: url(#outer-glow-1);
      }
    </style>
    <filter id="outer-glow-1" x="0" y="0" width="1242" height="428" filterUnits="userSpaceOnUse">
      <feOffset dx="0" dy="0"/>
      <feGaussianBlur result="blur" stdDeviation="4"/>
      <feFlood flood-color="#000" flood-opacity=".69"/>
      <feComposite in2="blur" operator="in"/>
      <feComposite in="SourceGraphic"/>
    </filter>
  </defs>
  <polygon class="cls-2" points="1238.75 427.5 1238.75 428.25 2 428.25 2 6 2.75 6 2.64 427.45 1238.75 427.5"/>
  <path class="cls-3" d="M366.58,298.52c-26.03-18.61-50.19-38.08-74.9-57.72-4.58-3.64-8.91-6.32-14.38-8.23-4.83-1.69-9.46-5.01-14.76-5.33-7.08-.43-14.18-1.63-21.38-.8-8.05.93-16.57,3.04-23.84,6.68-6.28,3.15-11.58,8.53-16.32,13.52-7.22,7.61-15.23,23.95-19.41,33.87s-7.76,20.73-13.92,30.25c-6.57,10.15-17.86,20.05-29.25,24.45-8.61,3.33-23.49,4.87-32.8,2.02-7.79-2.38-14.61-7.5-19.52-13.79-2.71-3.46-5.9-6.33-8.03-10.16-4.5-8.1-9.17-16.09-12.3-24.87-7.37-20.63-13.79-44.86-15.86-66.63l-4.14-43.56c-.71-7.48-2.05-13.88-5.1-20.66-2.24-4.98-4.06-9.76-7.44-14.21-9.92-13.05-15.85-22.4-19.76-38.75-1.33-5.56-1.52-11.47-.97-17.15,1.36-14.21,10.14-24.28,20.15-33.73,9.37-8.85,21.57-14.22,34.52-15.49,5.69-.55,10.82-1.43,16.65-1.43l102.48.07c5.54,0,10.89,0,16.05,1.33,11.4,2.95,22.65,6.6,32.39,13.2l32.91,22.28c10.06,6.81,21.68,13.9,33.63,15.99,9.65,1.69,18.88,3.33,28.62,4.25,16.18,1.53,32,2.75,48.36,2.66,21.18-.12,55.85-3.18,76.27-7.6l29.57-6.41c14.61-3.17,29.28-4.08,44.51-4.11l198.94-.4,165.54-.41c11-.03,21.16-3.24,31.42-5.83s33.34-12.59,43.07-17.74c24.71-13.08,45.25-31.36,71.77-41.04,6.36-.45,12.68-1.28,18.36,1.79,6.58,3.56,11.81,8.91,16.76,14.48,6.34,7.12,13,13.33,18.86,20.85l31.14,39.96,29.13,39.77c9.8,13.38,30.68,46.78,38.26,61.43l28.03,54.09c3.26,6.29,5.15,13.27,6.88,20.06,1.89,7.4,2.02,15.13,2.3,22.78.48,13.49-5.45,26.15-15.19,35.12-6.93,6.39-13.46,12.89-21.3,18.26l-48.08,32.92c-10.21,6.99-20.43,13.06-31.46,18.6l-27.41,13.76c-5.1,2.56-28.13,8.68-33.5,8.64-7.04-.06-14.02.64-21.04-.37-9.32-1.34-18.79-3.11-27.55-6.71-15-6.17-29.41-12.37-43.62-20.01l-25.73-13.85c-7.05-3.8-13.51-8.13-18.6-14.37-11.4-13.97-10.79-31.77-.82-45.98,4.03-5.74,8.51-10.73,13.72-15.41l47.72-42.87c11.45-10.29,16.99-25.24,13.46-40.15-2.61-11.03-16.3-17.06-26.3-19.56-19.59-4.9-38.79-9.93-58.93-12.75-16.82-2.35-44.91-2.99-61.4-.78-10.14,1.36-19.74,4.36-29.46,7.22-12.87,3.79-50.6,19.57-60.95,25.89l-30.35,18.54c-12.23,7.47-24.21,14.38-37.29,20.37l-61.95,28.39c-21.77,9.97-63.69,23.72-87.57,28.56-16.89,3.43-71.55,10.28-87.57,10.08l-33.72-.42c-7.72-3.55-16.22-4.11-23.59-8.07-8.27-4.45-15.98-9.01-24.02-14.76ZM332.37,253.66l41.1,31.15c7.43,5.63,14.82,11.7,23.49,14.66l20.29,6.93,29.17.24c15.69.13,68.72-6.44,85.38-9.74,22.83-4.53,63.9-18.03,84.71-27.54l61.32-28.03c13.06-5.97,24.98-12.9,37.15-20.33l30.71-18.73,36.56-17.11,23.52-9.24c11.48-2.36,22.3-6.49,34.06-8.15,12.49-1.76,25.01-2.38,37.6-1.59l28.54,1.81c21.31,3.89,41.96,8.33,62.79,13.99,18.22,4.95,34.53,15.7,36.82,35.95,2.05,18.17-4.47,35.99-18.25,48.38l-46.8,42.07c-5.95,5.34-13.26,12.8-16.23,20.06-5.81,14.22,2.7,25.05,14.91,31.6l28.23,15.14c13.56,7.27,27.23,13.22,41.51,19.06,11.53,4.72,31.35,7.76,43.58,5.86,8.11-1.26,16.3-3.11,23.96-6.09,14.61-5.69,47.03-23.58,60.14-32.53l47.16-32.18c5.87-4.01,10.35-8.99,15.91-13.38,5.73-4.52,10.69-10.72,12.86-17.76s1.05-23.2-.7-29.61c-1.63-5.97-3.3-12.14-6.19-17.7l-27.08-52.08c-7.85-15.09-28.22-47.57-38.35-61.39l-28.22-38.48-30.53-39.14-17.42-19.24c-6.66-7.36-12.68-15.43-22.31-12-19.99,7.12-46.41,28.38-68.16,39.61-11.4,5.89-35.55,16.23-47.56,19.1-11.12,2.65-21.88,5.71-33.57,5.74l-164.2.35-199.22.39c-14.73.03-28.64.9-42.67,3.93l-30.03,6.5c-20.29,4.4-56.95,7.56-78.09,7.68-16.72.09-32.81-1.18-49.42-2.7-10.55-.96-20.43-2.74-30.77-4.6-13.96-2.52-26.98-10.01-38.63-18.02l-32.42-22.26c-9.02-4.54-17.96-8.72-27.87-11.2-4.4-1.1-8.91-.87-13.62-.89l-89.03-.27c-8.11-.02-15.34.3-23.33.93-10.72.84-20.94,3.79-29.08,10.99-3.2,2.83-5.97,6.01-8.88,9.16-6.48,7.03-9,15.92-7.38,25.54,1.11,6.62,3.35,13.42,6.59,19.45,8.08,15.06,13.59,16,20.91,35.41,1.98,5.24,4.01,9.99,4.57,15.68l4.93,49.64c1.16,11.65,3.37,22.69,5.91,34.1,2.32,10.42,5.92,20.19,9.18,30.34,1.89,5.9,5.61,10.9,7.88,16.58,1.7,4.24,4.55,7.35,7.31,10.91,10.57,13.6,16.77,14.31,32.93,11.76,11.15-1.76,24.04-13.78,28.62-22.59,4.31-8.28,7.34-16.62,10.9-25.22,5.24-12.66,13.49-28.47,22.56-38.71,5.19-5.87,11.51-10.46,17.76-15.08,4.85-3.6,24.79-8.9,31.66-9.69,9.3-.14,18.19.42,27.4,1.23,9.72,3.29,18.91,6.89,27.83,11.87l37.59,29.51Z"/>
  <rect class="cls-1" x="564.19" y="78.4" width="3.64" height="15.24"/>
</svg>