<?xml version="1.0" encoding="UTF-8"?>
<svg id="Warstwa_1" data-name="Warstwa 1" xmlns="http://www.w3.org/2000/svg" xmlns:xlink="http://www.w3.org/1999/xlink" viewBox="0 0 924.67 851.58">
  <defs>
    <style>
      .cls-1 {
        fill: #fff;
      }

      .cls-2 {
        filter: url(#outer-glow-1);
      }
    </style>
    <filter id="outer-glow-1" x="43.53" y="6.43" width="866" height="839" filterUnits="userSpaceOnUse">
      <feOffset dx="0" dy="0"/>
      <feGaussianBlur result="blur" stdDeviation="5"/>
      <feFlood flood-color="#000" flood-opacity=".75"/>
      <feComposite in2="blur" operator="in"/>
      <feComposite in="SourceGraphic"/>
    </filter>
  </defs>
  <g class="cls-2">
    <path class="cls-1" d="M599.14,178.79c-1.11,4.91-5.51-1.9-12.18,3.45-1.38,1.11-1.7,2.49-1.35,4.06,1.72,7.72,5.97.92,7.39,5.96l-387.2.46c-18.2.02-34.93,1.33-52.57,3.41-10.62,1.25-20.52,3.57-30.29,7.36-12.58,4.87-20.92,14.74-24.03,27.99-2.71,11.54-3.79,22.86-4.26,35.24-2.16,56.55-6.46,111.88-11.02,168.4l-9.2,114.08c-1.88,23.33-1.81,45.58-.48,68.68,2.08,36.11,10.17,70.86,44.91,88.52,45.31,23.03,105.5,20.68,132.25-29.2,19.26-35.9,14.43-85.16,6.62-124.32l-15.84-79.4c-4.17-20.91-7.32-41.1-8.09-62.37-1.07-29.54,4.49-59.04,31.34-75.59,16.94-10.45,36.96-14.62,56.72-12.4,20.81,2.34,36.55,15.5,43.26,35.08,10.3,30.11,3.71,72.14-2.41,103.41l-13.36,68.22c-9.63,49.18-15.92,147.93-9.46,198.05,4.3,33.34,18.93,92.8,62.63,87.42.44,1.56-.53,4.13.55,5.86,1.7,2.74,5.67,2.27,8.02.81,2.02.1,4.74,2.19,6.88,2.6-35.86,15.82-63.82-7.68-77.79-40.07-6.84-15.87-10.84-32.1-13.35-49.29-7.74-52.95-1.63-154.48,8.47-206.23l13.49-69.14c5.58-28.58,12.92-72.58,2.05-99.57-13.21-32.78-57-26.51-79.2-12.17s-24.5,38.47-23.75,62c.65,20.65,3.71,40.26,7.77,60.54l15.36,76.65c7.52,37.53,12.4,83.53-.18,119.88-8.09,23.37-23.11,43.2-44.73,55.09-36.99,20.35-86.95,13.67-121.62-7.97-30.14-18.8-40.63-51.1-43.72-84.81-2.15-23.44-2.76-46.08-.94-69.83l8.48-111.16c4.54-59.52,9.86-117.89,12.06-177.55.56-15.08,1.54-29.03,4.98-43.15,8.06-33.08,37.33-42.37,68.02-45.82,19.88-2.24,39.02-3.51,59.3-3.49l386.46.33Z"/>
    <g>
      <path class="cls-1" d="M417.97,824.54c-2.14-.41-4.86-2.5-6.88-2.6-6.45,3.29-9.25-.36-8.57-6.67,1.06-.13,2.11-.41,3.2-.29,1.77,1.46,1.47,4.03,4.48,5.91,1-2.82,1.44-5.4,1.8-7.92,3-2.29,7.16-3.49,10.36-5.06,1.35,1.37,2.42,3.69,4.98,3s1.27-5.23,2.58-6.1c2.77-1.86,4.6-2.58,4.62-6.14,3.38-2.76,5.97-7.78,10.02-9.78l4.14.43c1.14-1.77.44-3.68-.16-5.36,95.62-170.03,170.2-358.4,314.43-494.86,48.22-47.37,112.24-113.75,117.45-186.84,5.02-67.83-77.28-84.48-122.13-48.47-55.36,36.36-50.81,117.39-116.14,134.04.74-3.43-6.38-2.08-6.11,1.24-4.49.91-8.99,1.84-13.62,2.04.74-2.48-2.6-3.03-2.31.1-3.66,1.06-7.46.28-11.15.52.77-1.86-1.4-3.3-2.51-4.18-2.18-1.72-9.58,3.42-9.23,4.61-1.34-.17-2.86.09-4.23.09-1.41-5.04-5.67,1.76-7.39-5.96-.35-1.58-.03-2.96,1.35-4.06,6.67-5.35,11.07,1.46,12.18-3.45,66.88,1.08,77.49-28.16,104.56-81.13,50.56-114.41,230.22-98.9,182.85,45.23-16.61,45.62-45.18,85.98-78.79,120.72-87.15,84.18-166.78,182.75-222.16,291.01-18.57,35.99-72.99,135.16-88.48,171.21-17.84,38.76-38.2,81.43-79.15,98.71Z"/>
      <path class="cls-1" d="M434.54,798.68c-.01,3.56-1.84,4.28-4.62,6.14-1.3.87-.13,5.44-2.58,6.1s-3.63-1.63-4.98-3c3.61-3.58,8.26-6.04,12.18-9.24Z"/>
      <path class="cls-1" d="M608.97,191.74c-3.91.26-7.78.92-11.74.43-.36-1.19,7.05-6.32,9.23-4.61,1.11.88,3.28,2.32,2.51,4.18Z"/>
      <path class="cls-1" d="M412,812.98c-.36,2.52-.8,5.1-1.8,7.92-3.02-1.88-2.72-4.46-4.48-5.91,1.29-2.13,4.76-.84,6.28-2Z"/>
      <path class="cls-1" d="M444.56,788.9c.32-2.12,2.9-3.42,3.98-4.93.6,1.69,1.29,3.59.16,5.36l-4.14-.43Z"/>
      <path class="cls-1" d="M642.15,187.84l-6.11,1.24c-.26-3.32,6.86-4.67,6.11-1.24Z"/>
      <path class="cls-1" d="M622.42,191.12l-2.31.1c-.29-3.14,3.05-2.58,2.31-.1Z"/>
    </g>
  </g>
  <rect x="390.4" y="178.61" width="5.39" height="13.89"/>
</svg>