<?xml version="1.0" encoding="UTF-8"?>
<svg id="Warstwa_1" data-name="Warstwa 1" xmlns="http://www.w3.org/2000/svg" xmlns:xlink="http://www.w3.org/1999/xlink" viewBox="0 0 909.78 436.5">
  <defs>
    <style>
      .cls-1 {
        fill: #1d1d1b;
      }

      .cls-2 {
        fill: #fff;
        filter: url(#outer-glow-1);
      }
    </style>
    <filter id="outer-glow-1" x="40.55" y="26.72" width="807.84" height="376.8" filterUnits="userSpaceOnUse">
      <feOffset dx="0" dy="0"/>
      <feGaussianBlur result="blur" stdDeviation="5"/>
      <feFlood flood-color="#1d1d1b" flood-opacity=".75"/>
      <feComposite in2="blur" operator="in"/>
      <feComposite in="SourceGraphic"/>
    </filter>
  </defs>
  <path class="cls-2" d="M751.19,368.65c-27.62,12.47-59.2,16.43-89.33,18.14-21.32,1.21-42.19,1.6-63.78,1.6h-307.88c-34.85,0-76.68-.77-110.37-6.94-42.83-7.84-78.52-27.23-100.44-65.86-7.59-13.38-13.05-27.07-16.85-42.14-12.88-51.07-8.41-112.17,18.81-158.17,13.24-22.37,32.22-39.75,55.65-50.95,41.25-19.72,93.99-21.45,139.24-22.5l70.56-.02h196.08s69.87.02,69.87.02c45.55,1.13,98.22,2.73,139.72,22.73,23.05,11.1,41.87,28.35,54.95,50.39,27.3,45.98,31.95,106.88,19.13,157.99-10.71,42.69-34.68,77.36-75.35,95.73ZM701.09,365.37c12.75-2.35,24.64-5.61,36.53-10.66,38.28-16.25,60.8-48.27,70.4-88.16,10.92-45.35,7.04-99.44-16.6-140.45-21.16-36.72-55.03-53.3-95.57-60.86-38.26-7.13-85.29-7.23-124.85-7.23h-257.24c-38.45,0-84.79.35-121.89,7.47-14.74,2.83-28.41,6.72-41.96,12.94-38.91,17.86-60.85,52.38-69.89,93.47s-6.03,90.69,13.63,129.19c12.59,24.64,32.99,43.48,58.58,54.03,13.88,5.72,27.84,9.2,42.77,11.5,16.69,2.57,32.82,4.16,49.7,4.44l60.04.96,288.46-.02c33.4,0,75.72-.68,107.87-6.61Z"/>
  <rect class="cls-1" x="434.64" y="372" width="4.77" height="17.17"/>
</svg>